# xmcd
#
# Track frame offsets: 
#        150
#        21997
#        44629
#        69815
#        92815
#        110105
#        137182
#        159060
#        182617
#        202883
#
# Disc length: 3031 seconds
#
# Revision: 0
# Processed by: cddbd v1.5.2PL0 Copyright (c) Steve Scherf et al.
# Submitted via: ExactAudioCopy v0.99pb5
#
DISCID=830bd50a
DTITLE=Владимир Федоренко - Инструментальный альбом
DYEAR=2008
DGENRE=Instrumental Rock
TTITLE0=1 - Track
TTITLE1=2 - Track
TTITLE2=3 - Track
TTITLE3=4 Track Blus - 4 Track Blus
TTITLE4=5 - Track
TTITLE5=6 Track D K - 6 Track D K
TTITLE6=7 Track Rock - Roll
TTITLE7=8 Track Bit - 8 Track Bit
TTITLE8=9 - Track
TTITLE9=10 - Track
EXTD=
EXTT0=
EXTT1=
EXTT2=
EXTT3=
EXTT4=
EXTT5=
EXTT6=
EXTT7=
EXTT8=
EXTT9=
PLAYORDER=
